# xmcd CD database file
#
# Track frame offsets:
#	150
#	9134
#	18179
#	30611
#	39919
#	50625
#	66818
#	79453
#	92751
#	105444
#	115637
#	125588
#	135084
#	148522
#	162192
#	179328
#	196157
#	209064
#	221055
#	236589
#	245950
#	263088
#	278309
#
# Disc length: 3940 seconds
#
# Revision: 0
# Processed by: cddbd v1.5.2PL0 Copyright (c) Steve Scherf et al.
# Submitted via: ACXtractor (MTCDDB.DLL V2003.07.15)
#
DISCID=380f6217
DTITLE=Porter Wagoner - Blackwood Bros
DYEAR=2000
DGENRE=Country
TTITLE0=Build me a Cabin
TTITLE1=Build me a Cabin
TTITLE2=Thirty Pieces
TTITLE3=Mama's Bible
TTITLE4=Where The Soul Never Dies
TTITLE5=In the Shade of the Family Tree
TTITLE6=Where No One Stands Alone
TTITLE7=Happy Birthday Jesus
TTITLE8=If we Never Meet Again
TTITLE9=God Walks these Hills With Me
TTITLE10=Boston Jail
TTITLE11=Fallen Leaves
TTITLE12=I'd Like to Make the Same Mistake
TTITLE13=Skid row Joe
TTITLE14=Mother and Dad are Dead
TTITLE15=Trouble in the Armen Corner
TTITLE16=An Old Log Cabin for Sale
TTITLE17=Calling My Name
TTITLE18=When the Silver Eagle Meets the Great Speckled Bird
TTITLE19=Strangers Story
TTITLE20=White Doves
TTITLE21=Charleys Picture
TTITLE22=Silver and Gold 
EXTD=ID3G:   2 YEAR: 2000
EXTT0=
EXTT1=
EXTT2=
EXTT3=
EXTT4=
EXTT5=
EXTT6=
EXTT7=
EXTT8=
EXTT9=
EXTT10=
EXTT11=
EXTT12=
EXTT13=
EXTT14=
EXTT15=
EXTT16=
EXTT17=
EXTT18=
EXTT19=
EXTT20=
EXTT21=
EXTT22=
PLAYORDER=
